<?xml version="1.0" encoding="UTF-8"?>
<svg id="Layer_1" data-name="Layer 1" xmlns="http://www.w3.org/2000/svg" version="1.1" viewBox="0 0 481.1 400.9">
  <defs>
    <style>
      .cls-1 {
        fill: #fff200;
      }

      .cls-1, .cls-2, .cls-3, .cls-4, .cls-5 {
        stroke-width: 0px;
      }

      .cls-2 {
        fill: #00aeef;
      }

      .cls-3 {
        fill: #231f20;
      }

      .cls-4 {
        fill: #ec008c;
      }

      .cls-5 {
        fill: #fff;
      }
    </style>
  </defs>
  <g id="CYM">
    <polygon class="cls-4" points="200.4 60.1 270.6 130.3 300.7 100.2 200.4 0 100.2 100.2 130.3 130.3 200.4 60.1"/>
    <polygon class="cls-1" points="60.1 200.4 130.3 130.3 100.2 100.2 0 200.4 100.2 300.7 130.3 270.6 60.1 200.4"/>
    <polygon class="cls-2" points="200.4 340.7 130.3 270.6 100.2 300.7 200.4 400.9 300.7 300.7 270.6 270.6 200.4 340.7"/>
  </g>
  <rect id="K" class="cls-3" x="292.9" y="122.5" width="155.9" height="155.9" transform="translate(-33.1 320.9) rotate(-45)"/>
  <g id="TEXT_OUTLINE" data-name="TEXT OUTLINE">
    <g>
      <path class="cls-5" d="M150.5,206.6l-7.6,8.2v20.3h-14.6v-71.1h14.6v32.2l6.4-8.8,18.1-23.4h18l-25.2,31.6,26,39.5h-17.4l-18.3-28.5h0Z"/>
      <path class="cls-5" d="M191.7,235.2v-71.1h24.9c8.6,0,15.2,1.7,19.6,5,4.5,3.3,6.7,8.1,6.7,14.5s-.9,6.6-2.7,9.2c-1.8,2.7-4.3,4.6-7.5,5.8,3.6.9,6.5,2.8,8.6,5.5,2.1,2.8,3.1,6.2,3.1,10.2,0,6.8-2.2,12-6.5,15.5-4.4,3.5-10.6,5.3-18.7,5.4h-27.6.1,0ZM206.3,193.8h10.8c7.4-.1,11.1-3.1,11.1-8.8s-.9-5.5-2.8-7c-1.9-1.4-4.8-2.1-8.9-2.1h-10.3v17.9h0ZM206.3,204.2v19.2h12.5c3.5,0,6.1-.8,8.1-2.5,1.9-1.6,2.9-3.9,2.9-6.8,0-6.5-3.4-9.8-10.1-9.9h-13.4Z"/>
    </g>
    <g>
      <path class="cls-5" d="M326.7,210.1v25h-14.6v-71.1h27.7c5.3,0,10,1,14.1,2.9s7.2,4.7,9.4,8.3c2.2,3.6,3.3,7.7,3.3,12.3,0,7-2.4,12.5-7.2,16.5s-11.4,6-19.8,6h-12.9ZM326.7,198.2h13.1c3.9,0,6.8-.9,8.9-2.7,2-1.8,3.1-4.4,3.1-7.8s-1-6.3-3.1-8.4-4.9-3.3-8.5-3.3h-13.4v22.3h-.1Z"/>
      <path class="cls-5" d="M402.8,209.1h-11.7v26h-14.6v-71.1h26.4c8.4,0,14.9,1.9,19.4,5.6,4.6,3.7,6.8,9,6.8,15.9s-1,8.9-3.1,12.1-5.3,5.8-9.5,7.7l15.4,29.1v.7h-15.7l-13.3-26h-.1,0ZM391.2,197.3h11.8c3.7,0,6.5-.9,8.5-2.8s3-4.5,3-7.7-1-6-2.9-7.9-4.8-2.9-8.8-2.9h-11.8v21.3h.2,0Z"/>
    </g>
  </g>
</svg>