<svg width="64" height="52" viewBox="0 0 64 52" fill="none" xmlns="http://www.w3.org/2000/svg">
<path d="M35.342 35.342L25.8471 44.8369L6.78205 25.7718L25.8471 6.70669L35.342 16.2769L38.733 12.8859L25.8471 0L0 25.7718L25.8471 51.6189L38.6577 38.8084L35.342 35.342Z" fill="black"/>
<path d="M16.3523 16.2015L6.8574 25.7717L16.3523 35.342L12.9612 38.8083L0 25.7717L12.9612 12.8105L16.3523 16.2015Z" fill="#FFF200"/>
<path d="M35.4174 16.3523L25.8471 6.8574L16.3523 16.2016L12.9612 12.8105L25.8471 0L38.8084 12.9612L35.4174 16.3523Z" fill="#EC008C"/>
<path d="M35.4174 35.2667L25.8471 44.7615L16.3523 35.342L12.9612 38.733L25.8471 51.6189L38.8084 38.6577L35.4174 35.2667Z" fill="#00AEEF"/>
<path d="M34.7232 25.599L49.1101 11.2121L63.497 25.599L49.1101 39.9859L34.7232 25.599Z" fill="black" stroke="black" stroke-miterlimit="10" stroke-linejoin="round"/>
<path d="M22.9083 30.5946L20.1954 26.45L19.0651 27.8818V30.5946H17.3319V20.7983H19.0651V25.4704L22.3808 20.7983H24.34L21.3258 25.0936L24.9429 30.5946H22.9083ZM28.7107 30.5946H25.7718V20.8736L28.4846 20.7229C29.5396 20.7229 30.2932 20.949 30.896 21.4011C31.4235 21.8533 31.7249 22.4561 31.7249 23.285C31.7249 24.0386 31.3481 24.6414 30.5192 25.0936C31.7249 25.4704 32.3278 26.3746 32.3278 27.6557C32.3278 28.56 32.0263 29.3135 31.3481 29.7657C30.6699 30.2932 29.7657 30.5946 28.7107 30.5946ZM27.505 22.2301V24.5661H28.3339C29.4642 24.5661 29.9917 24.1893 29.9917 23.285C29.9917 22.5315 29.4642 22.1547 28.4846 22.1547L27.505 22.2301ZM27.505 25.9225V29.1628H28.3339C29.0875 29.1628 29.6903 29.0121 29.9917 28.786C30.3685 28.4846 30.5192 28.1078 30.5192 27.505C30.5192 26.9021 30.3685 26.5253 30.0671 26.2993C29.7657 25.9979 29.1628 25.9225 28.3339 25.9225H27.505Z" fill="white"/>
<path d="M43.7819 26.9775V30.5946H42.0487V20.8736L44.0833 20.7983C45.5904 20.7983 46.7208 21.0244 47.4743 21.4765C48.1525 21.9286 48.5293 22.6822 48.5293 23.6618C48.5293 25.9225 47.2482 27.0528 44.6108 27.0528L43.7819 26.9775ZM43.7819 22.3054V25.4704H44.4601C45.289 25.4704 45.8918 25.395 46.1933 25.0936C46.57 24.8675 46.7961 24.4154 46.7961 23.8125C46.7961 22.8329 45.9672 22.3054 44.3094 22.3054H43.7819ZM55.5374 30.5946L52.9753 26.5253H51.845V30.5946H50.0364V20.7983H51.1668L52.7492 20.7229C55.236 20.7229 56.4417 21.7026 56.4417 23.5865C56.4417 24.1893 56.291 24.7168 55.9895 25.1689C55.6128 25.6211 55.1606 25.9979 54.7085 26.1486L57.572 30.5946H55.5374ZM51.845 22.3054V25.0182L52.5985 25.0936C53.3521 25.0936 53.8796 24.9429 54.181 24.7922C54.5578 24.5661 54.7085 24.1893 54.7085 23.5865C54.7085 23.059 54.4824 22.7575 54.181 22.6068C53.8042 22.3808 53.2014 22.3054 52.4478 22.3054H51.845Z" fill="white"/>
</svg>